<?xml version="1.0" encoding="utf-8"?>
<!-- Generator: Adobe Illustrator 25.0.0, SVG Export Plug-In . SVG Version: 6.00 Build 0)  -->
<svg version="1.1" id="圖層_1" xmlns="http://www.w3.org/2000/svg" xmlns:xlink="http://www.w3.org/1999/xlink" x="0px" y="0px"
	 viewBox="0 0 697 342.7" style="enable-background:new 0 0 697 342.7;" xml:space="preserve">
<style type="text/css">
	.st0{fill:#FFFFFF;}
	.st1{fill:#A08143;}
	.st2{fill:#3E3A39;}
</style>
<g>
	<g>
		<path class="st0" d="M286.8,29.7c3.8-3.3,11.1-6.1,16.2-6.1h89.4c5.1,0,12.4,2.7,16.2,6l25,21.3c3.9,3.3,4.4,9.2,1.2,13.1
			l-81.9,99.4c-3.2,3.9-8.4,3.9-11.6-0.1l-79.1-99.9c-3.1-4-2.6-10,1.2-13.3L286.8,29.7z"/>
	</g>
	<g>
		<path class="st1" d="M345.3,112l-20.1-88.6h-25c-2.9,0-6.7,1.2-9.7,2.8L345.3,112z"/>
		<path class="st1" d="M401.8,24.7c-2.2-0.8-4.5-1.3-6.4-1.3H394h-29l-17.6,89.7L401.8,24.7z"/>
		<path class="st1" d="M271,43.1l-11.5,10.2c-2.8,2.5-3.2,6.9-1,9.9l43.7,53l40,48.5L271,43.1z"/>
		<polygon class="st1" points="363.3,23.4 327.1,23.4 346.5,108.9 		"/>
		<path class="st1" d="M438.4,61.7c1.2-2.8,0.5-6.2-1.9-8.3l-13.6-12L351.1,166c0.1-0.1,0.1-0.1,0.2-0.2l86.6-103.4
			C438,62.2,438.2,61.9,438.4,61.7z"/>
		<path class="st1" d="M272.4,41.9l73.4,125.4c0.8,0.2,1.6,0.2,2.4,0.1l73.3-127.3l-13.5-12c-1.5-1.3-3.6-2.5-5.9-3.3l-55.3,142.3
			L290,26.6c-0.6,0.3-1.1,0.7-1.6,1.1c-0.4,0.3-0.7,0.6-1.1,0.9L272.4,41.9z"/>
	</g>
</g>
<g>
	<g>
		<path class="st2" d="M32.5,273.5l3.5,1.2c0.6,0.1,0.9,0.3,0.9,0.6c0,0.2-0.3,0.5-0.8,0.8c-0.3,0.5-0.6,1-0.9,1.4
			c1.2,1.6,2.5,3,3.9,4.3c0.6-0.9,1.1-1.7,1.4-2.4c0.6-1.3,1-3.1,1.3-5.4l3.7,0.5c0.4,0,0.7,0.2,0.7,0.5c0,0.3-0.3,0.6-0.8,1
			c-0.1,0.6-0.2,1.1-0.4,1.7h2.3v-4.3l3.3,0.3c0.7,0.1,1,0.3,1,0.6c0,0.2-0.2,0.4-0.6,0.8v2.7H54v3.1h-3.1v3h3.7v3.3h-2.3v3.4
			c1.1-0.4,2.1-0.8,3.1-1.3v2.9c-1.4,0.8-3.5,1.8-6.4,3c-0.2,0.4-0.4,0.6-0.6,0.6c-0.2,0-0.4-0.2-0.4-0.6l-0.8-3.3
			c0.6-0.2,1.2-0.3,1.9-0.5v-4.3h-1.6c-0.1,2.4-0.6,4.2-1.3,5.4c-0.7,1.4-2.3,2.6-4.8,3.7l-2.3-2.5c2-0.8,3.3-1.6,4-2.6
			c0.6-0.8,1-2.1,1.1-4h-3.3V284h6.4v-3h-3.4c-0.4,0.9-1,1.8-1.7,2.7l-1.5-0.6l-3,3.2c-1.5-1.7-2.9-3.6-4.2-5.8
			c-1.6,2.4-3.4,4.6-5.3,6.6h12v3.9h-4.3v5.8h5.2v3.9h-5.2v13.5c2.4-0.3,4.7-0.6,7-0.9v3.7c-3.3,0.6-8.4,1.4-15.5,2.5
			c-0.3,0.6-0.7,0.8-1,0.8c-0.3,0-0.5-0.2-0.6-0.7l-1.1-4.4c2.4-0.1,4.7-0.3,7.1-0.5v-13.9h-6.5v-3.9h6.5V291h-4.8v-2.6
			c-0.3,0.3-0.7,0.7-1,1l-3.3-2.7C26.6,283,30,278.6,32.5,273.5z M28.2,303.2c0.7,2.7,1.3,5.6,1.9,8.9l-3.3,0.8
			c-0.5-3.2-1.3-6.2-2.3-9.1L28.2,303.2z M38.9,303.2l3.2,1.2c0.5,0.1,0.7,0.3,0.7,0.6c0,0.2-0.3,0.5-0.8,0.8
			c-0.4,1.9-1.1,3.9-1.9,6.2l-2.9-0.9c0.3-1.3,0.6-2.4,0.9-3.5C38.5,306.2,38.7,304.7,38.9,303.2z M45.1,296.4h23.7v17.7h-5.1
			c1.9,1.6,4.4,2.9,7.4,4.1l-4,2.9c-2.8-1.5-5.2-3.3-7.2-5.4l2.7-1.6H52.6l2,1.1c0.3,0.2,0.5,0.5,0.5,0.7c0,0.3-0.2,0.6-0.6,0.7
			c-1.8,1.4-4.4,2.9-7.8,4.5l-3.7-2.9c2.8-1,5.4-2.4,7.8-4.1h-5.5V296.4z M49.5,301.5h15.2v-2.1H49.5V301.5z M49.5,306.3h15.2v-2.1
			H49.5V306.3z M64.6,311V309H49.5v2.1H64.6z M57.1,274.1l3.7,0.5c0.4,0,0.7,0.2,0.7,0.5c0,0.3-0.3,0.6-0.8,1
			c-0.1,0.6-0.2,1.1-0.4,1.7h2.1v-4.3l3.3,0.3c0.7,0.1,1,0.3,1,0.6c0,0.2-0.2,0.4-0.6,0.8v2.7h4.7v3.1H66v3h5.4v3.3h-4.1v3.9
			c0,0.8,0.3,1.2,1,1.2h0.2c0.3,0,0.6-0.1,0.8-0.4c0.2-0.2,0.3-1.1,0.5-2.5l3.3,0.8c-0.3,2.1-0.7,3.5-1.3,4.2c-0.7,0.7-1.5,1-2.4,1
			h-1.7c-2.5,0-3.7-0.9-3.7-2.7v-5.6h-1.4c-0.2,2.3-0.6,4.1-1.2,5.3c-0.7,1.3-2.2,2.5-4.5,3.6l-2.3-2.5c1.8-0.7,3-1.5,3.7-2.5
			c0.6-0.8,0.9-2.1,1-3.9h-3.5V284h6.6v-3H59c-0.4,0.7-0.9,1.5-1.5,2.3l-3.3-1.3c0.7-1,1.3-1.9,1.7-2.7
			C56.4,278,56.8,276.3,57.1,274.1z"/>
		<path class="st2" d="M81.6,276.6h43.9v4.7h-24.1c-1.9,5.4-3.9,9.7-5.9,12.8h26.4v26.2h-4.7v-3.7H96.9v3.7h-4.7v-21.7
			c-2.5,2.9-5.6,5.9-9.5,8.9l-3.9-3.3c5.4-3.9,9.5-8,12.3-12.2c1.8-2.4,3.4-6,5-10.6H81.6V276.6z M96.9,312.3h20.2v-13.9H96.9V312.3
			z"/>
		<path class="st2" d="M145.5,274.9l5,1.7c0.5,0.2,0.8,0.4,0.8,0.8c0,0.2-0.6,0.5-1.7,0.8c-0.7,2.3-1.3,4.4-2.1,6.4h11.1v-11.1
			l4.3,0.4c0.8,0,1.2,0.3,1.2,0.7c0,0.2-0.3,0.6-0.8,1.2v8.9h15.9v4.3h-15.9v10.3h13.8v4.3h-13.8v10.8h18.6v4.3h-45.2v-4.3h21.9
			v-10.8h-14.4v-4.3h14.4v-10.3h-13.1c-0.1,0.2-0.2,0.5-0.4,0.7c-1.6,3-3.4,5.8-5.4,8.2l-4.7-3.1c2.5-2.8,4.5-5.6,6-8.5
			C142.7,283.4,144.2,279.7,145.5,274.9z"/>
		<path class="st2" d="M191.1,281.9h8v-9.1l5.1,0.6c0.6,0.1,0.9,0.3,0.9,0.6c0,0.4-0.4,0.9-1.2,1.4v6.4h6v4.5h-6v11.2
			c2.2-1,4.4-2,6.6-3v4.5l-6.6,2.9v13.4c0,2.1-0.6,3.7-1.8,4.6c-1,1-3.4,1.5-7.3,1.5l-1.9-4.7h4c1.4,0,2.1-0.8,2.2-2.3v-10.4
			l-5.4,2.4c-0.5,1.1-1,1.7-1.4,1.7c-0.3,0-0.5-0.3-0.7-0.8l-1.8-4.7c3.1-0.9,6.2-2,9.3-3.1v-13.2h-8V281.9z M211.3,280.7h10.1v-7.8
			l4.3,0.4c0.8,0.1,1.2,0.3,1.2,0.7c0,0.2-0.3,0.7-0.8,1.2v5.6h10.7v4.3h-10.7v8.5h6c0.6-0.4,0.9-0.6,1-0.6c0.3,0,0.7,0.2,1,0.5
			l2.4,2.3c0.3,0.3,0.5,0.6,0.5,1c0,0.3-0.5,0.7-1.4,1.2c-2.2,6.4-4.6,11.2-7.2,14.3c2.8,2,6.3,4.1,10.5,6.1l-3.7,3.9
			c-4.1-2.2-7.4-4.5-10.2-6.8c-3.3,2.7-7.7,4.9-13.2,6.6l-3.1-4.1c3.6-0.8,6.4-1.7,8.6-2.8c1.6-0.8,3.1-1.7,4.4-2.7
			c-0.6-0.7-1.1-1.3-1.7-2c-2.5-3-4.3-7.3-5.4-12.8h-2.4v-4.1h9.1V285h-10.1V280.7z M218.9,297.6c1,4.4,2.7,7.9,5.1,10.5
			c0.3,0.4,0.7,0.7,1,1.1c0.2-0.2,0.3-0.4,0.5-0.6c1.9-2.4,3.6-6.1,5.2-11H218.9z"/>
		<path class="st2" d="M245.5,282.1h8v-9.1l5.1,0.6c0.6,0,0.9,0.3,0.9,0.7c0,0.4-0.4,0.9-1.2,1.4v6.4h6.6v4.5h-6.6V298
			c2.3-0.8,4.7-1.7,7-2.7v4.5l-7,2.6v13c0,2.1-0.6,3.7-1.7,4.6c-1,1-3.3,1.5-7,1.5l-1.9-4.7h3.7c1.3,0,2-0.8,2.1-2.3v-10.4l-4.5,1.7
			c-0.6,1.1-1,1.7-1.5,1.7c-0.3,0-0.5-0.3-0.7-0.9l-1.8-4.7c2.9-0.7,5.7-1.5,8.5-2.5v-13h-8V282.1z M269.4,274.5h15.7v13.6
			c0.1,1.1,0.8,1.7,2.1,1.7c0.9,0,1.5-0.3,1.8-0.8c0.3-0.5,0.5-2,0.7-4.6l4.7,0.8c-0.3,3.8-1,6.3-2.1,7.5c-0.8,0.9-2.5,1.4-5.1,1.4
			c-3.2-0.1-5.1-0.7-5.8-1.7c-0.5-0.8-0.8-1.8-0.8-3.1v-10.3H274v1.6c0,2.8-0.5,5.2-1.7,7.5c-0.7,1.6-2.2,3.7-4.5,6.2l-4.5-2.3
			c2.2-2,3.7-3.7,4.5-5.2c1.1-2.1,1.7-4.2,1.7-6.2V274.5z M266.6,296h18.7c0.8-0.5,1.2-0.8,1.3-0.8c0.4,0,0.7,0.2,1.1,0.5l2.5,2.4
			c0.3,0.3,0.5,0.6,0.5,1c0,0.3-0.6,0.8-1.7,1.2c-2,5.8-4.2,10-6.7,12.8c0.9,0.6,1.8,1.2,2.8,1.7c2.2,1.1,5.1,2,8.8,2.6l-3.9,4.3
			c-3.5-1.1-6.5-2.5-9-4.1c-0.7-0.4-1.4-0.9-2-1.4c-3,2.3-7,4.2-11.9,5.7l-3.3-4.3c3.3-0.7,5.9-1.5,7.9-2.4c1.4-0.6,2.7-1.4,3.8-2.2
			c-0.4-0.4-0.8-0.9-1.2-1.3c-1.7-2.2-3.1-4.6-4.1-7.2c-0.6-1.5-0.9-2.9-1.2-4.3h-2.5V296z M273.1,300.1c0.3,1.3,0.8,2.5,1.3,3.7
			c0.9,2,2.1,3.9,3.8,5.8c0.2,0.2,0.3,0.4,0.5,0.6c0.2-0.2,0.3-0.4,0.5-0.7c1.7-2.1,3.2-5.2,4.6-9.4H273.1z"/>
		<path class="st2" d="M317.5,283.8v3.8c-2.1,1.2-5.1,2.7-8.9,4.5h9.2l-2.8-1.7c3.4-1,5.9-1.8,7.3-2.5c2.2-1,4-2.2,5.5-3.6
			c1-1,1.8-2.3,2.3-3.9h-6.4c-1.3,1.2-2.8,2.4-4.4,3.5l-4.1-2.3c4-2.4,7.2-5.4,9.7-8.9l3.8,1.3c0.5,0.2,0.7,0.4,0.7,0.6
			c0,0.1-0.1,0.3-0.4,0.6c-0.3,0.1-0.9,0.6-1.7,1.5h16.6l1.2-0.7c0.4,0,0.8,0.2,1.2,0.5l2.5,1.5c0.3,0.2,0.5,0.4,0.5,0.7
			c0,0.4-0.3,0.8-1,1.2l-5,6l-3.9-1.4l2.8-4.1h-6.6c-0.2,0.1-0.4,0.3-0.6,0.5c-0.2,0.6-0.5,1.1-0.7,1.6c1.3,1.4,2.7,2.7,4.4,3.7
			c2,1.2,5.7,2.4,11,3.8l-4.5,3.7c-0.8-0.3-1.4-0.5-2.1-0.8v21.3h-9.6c4.4,1.3,9.8,2.4,16,3.3l-3.7,3.9c-6.8-1.5-12.6-3.3-17.3-5.4
			l1.7-1.8h-9.7l2.1,1.5c0.2,0.2,0.4,0.4,0.4,0.7c0,0.2-0.3,0.4-1,0.6c-6,2-11.7,3.5-16.9,4.5l-3.7-3.5c6.3-1,11.6-2.3,16-3.9H308
			v-21.8c-1.2,0.6-2.5,1.2-3.9,1.8c-0.3,0.5-0.7,0.8-1,0.8c-0.3,0-0.5-0.2-0.5-0.7l-1.1-4.4C306.9,288.5,312.3,286.5,317.5,283.8z
			 M305.9,273.7c3.9,1.8,7.1,3.7,9.7,5.8l-2.9,3.1c-3-2.1-6.3-4-9.9-5.7L305.9,273.7z M312.7,298.4h25.6v-2.7h-25.6V298.4z
			 M312.7,304.4h25.6v-2.7h-25.6V304.4z M338.3,310.4v-2.6h-25.6v2.6H338.3z M321.5,292.1h19.6c-2.6-1.2-4.6-2.4-5.9-3.5
			c-1-0.8-1.9-1.7-2.8-2.8c-0.4,0.5-0.9,1-1.4,1.4c-1.2,1.1-2.8,2-4.7,2.9C325.1,290.7,323.5,291.3,321.5,292.1z"/>
		<path class="st2" d="M360.4,279.5v-4.1H375V316c0,2.1-1,3.4-3.1,4c-1.6,0.5-3.3,0.8-4.9,0.8l-1.7-4.3l3.8-0.1
			c1.1-0.1,1.6-0.6,1.6-1.6v-11.3h-6.2c-0.2,2.1-0.4,4.2-0.7,6.2c-0.6,4.2-1.5,7.9-2.8,11.1l-4.3-2.3c1.3-3.2,2.3-6.4,2.7-9.7
			c0.7-4.2,1-8.3,1-12.4V279.5z M364.7,287.1h6v-7.6h-6V287.1z M364.7,299.3h6v-8.1h-6v5.2C364.7,297.4,364.7,298.3,364.7,299.3z
			 M381.8,279.4v-4.1h15.1v10.5c0,1.5,0.2,2.3,0.6,2.3h2.6c0.3,0,0.5-0.1,0.7-0.4c0.2-0.4,0.5-1.7,0.8-4l4.3,1.4
			c-0.7,3.2-1.5,5.2-2.5,5.9c-1,0.8-2.3,1.2-4.1,1.2H397c-3.1,0-4.7-1.8-4.7-5.4v-7.5h-6v3.3c0,2.1-0.5,4-1.4,5.8
			c-0.9,1.8-2.3,3.5-4.2,4.9l-4.5-2.3c2-1.2,3.4-2.4,4.2-3.7c1-1.6,1.5-3.2,1.4-4.8V279.4z M377.9,294.9h19c0.6-0.4,0.9-0.6,1-0.6
			c0.3,0,0.7,0.2,1,0.5l2.4,2.3c0.3,0.3,0.5,0.6,0.5,0.9c0,0.3-0.5,0.8-1.4,1.2c-2,5.9-4.2,10.3-6.6,13c0.8,0.6,1.7,1.2,2.6,1.7
			c2.1,1.1,4.9,2,8.3,2.7l-3.9,4.3c-3.3-1.1-6.1-2.5-8.5-4.1c-0.7-0.5-1.3-1-2-1.5c-2.8,2.1-6.3,3.8-10.6,5.2l-3.1-4.1
			c3.1-0.8,5.5-1.6,7.4-2.4c1.1-0.6,2.2-1.2,3.1-1.9c-0.4-0.5-0.8-1-1.2-1.4c-1.6-2.1-2.9-4.5-3.8-7.2c-0.6-1.5-0.9-3-1.2-4.4h-3.1
			V294.9z M385,299.1c0.3,1.3,0.7,2.6,1.2,3.8c0.8,2,2,4,3.5,5.8c0.2,0.2,0.4,0.4,0.6,0.6c0.3-0.3,0.5-0.6,0.7-0.9
			c1.6-2.1,3-5.2,4.4-9.3H385z"/>
		<path class="st2" d="M424.7,273.5l4.2,2c0.5,0.2,0.7,0.4,0.7,0.7c0,0.6-0.4,1-1.2,1.2c-1.6,3.5-3.1,6.6-4.5,9.2v34.5h-4.7v-26.9
			c-1.3,1.9-2.8,3.8-4.3,5.8l-3.5-3.4c3-3.6,5.6-7.2,7.6-10.8C420.8,282.5,422.8,278.4,424.7,273.5z M434.2,279.4l4.5,1.5
			c0.4,0.2,0.7,0.4,0.7,0.7c0,0.2-0.6,0.4-1.7,0.6c-1.1,3.2-2.4,6-4,8.4c-1.4,2.2-3.1,4.2-4.9,6.1l-4.1-2.7c2.3-2.1,4.1-4.2,5.5-6.3
			C431.7,285.7,433,283,434.2,279.4z M431.7,294.9h22.7c0,10.2-0.3,16.6-1,19.2c-0.4,2.5-1.2,4.3-2.6,5.3c-1.4,1-3.8,1.5-7.2,1.5
			l-2.1-4.5c3.5,0,5.5-0.3,6.1-0.9c0.6-0.4,1.1-1.5,1.4-3.2c0.5-1.7,0.8-6.1,0.8-13.3h-7.7c-0.3,4.1-0.8,7.4-1.6,9.9
			c-1,3-2.2,5.4-3.6,7.2c-1.4,1.8-3.3,3.4-5.7,4.9l-4.5-3.5c2.6-1.2,4.6-2.6,5.7-4.2c1.4-1.6,2.5-3.6,3.4-5.9c0.8-2.2,1.3-5,1.5-8.5
			h-5.9V294.9z M438.9,275.5h12.6c0.4,4.6,1.5,8.4,3.4,11.2c1.3,2.1,3.6,4.5,6.8,7.4l-4.1,2.8c-3.5-3.2-6.1-6.3-7.7-9.2
			c-1.3-2.1-2.2-4.8-2.6-8.2h-8.3V275.5z"/>
		<path class="st2" d="M468.4,280.5h16.4c1.1-2.2,2.1-4.6,3-7.2l3.7,1.5c0.7,0.2,1.1,0.5,1.1,1c0,0.3-0.3,0.5-1,0.6
			c-0.6,1.4-1.2,2.8-1.8,4.1h25.2v4.1h-27.2c-1.1,2.1-2.2,4-3.3,5.6h23.8v26c0,2.2-1.2,3.7-3.5,4.3c-1.8,0.5-3.6,0.8-5.4,0.8
			l-1.9-4.5l4.4-0.1c1.2,0,1.8-0.7,1.8-2v-2.8h-20v9.1h-4.5v-24.5c-2.6,2.4-5.5,4.5-8.9,6.3l-3.1-4.5c4.1-1.5,8-4.4,11.8-8.8
			c1.3-1.4,2.5-3,3.6-4.8h-14.1V280.5z M483.7,299.3h20v-4.9h-20V299.3z M483.7,307.9h20v-4.7h-20V307.9z"/>
		<path class="st2" d="M538.9,274.5l3.9,3l-6.4,13.6c3.6,3.9,5.4,7.5,5.4,10.7c0,3.5-0.9,6.3-2.8,8.4c-1.8,2-4.2,3-7.1,3l-1.9-4.5
			c3-0.5,5-1.3,5.9-2.6c0.9-1,1.3-2.6,1.3-4.6c0-2.5-1.8-5.8-5.4-9.9l5.1-12.4h-7.5v42.5h-4.5v-46.6h13.4
			C538.5,274.7,538.7,274.5,538.9,274.5z M544.3,275.3h23.1v21.3H559c0.7,2.9,1.5,5.4,2.4,7.6c2.4-1.8,4.5-3.7,6.4-5.5l3.2,3.1
			c0.2,0.2,0.3,0.5,0.3,0.7c0,0.3-0.5,0.5-1.4,0.5c-2.1,1.6-4.4,3.1-6.7,4.7c1.9,3.1,4.8,6.3,8.9,9.5l-4.7,3.8
			c-2.5-2.7-4.6-5.3-6.2-7.6c-1.8-2.7-3.1-5.4-4-8c-0.9-2.1-1.7-5-2.4-8.7h-5.9v17.5c3-0.8,6-1.7,8.9-2.7v3.9
			c-3.3,1.3-8.4,3-15.5,5.2c-0.3,0.5-0.7,0.8-1,0.8c-0.3,0-0.5-0.2-0.6-0.7l-1.1-4.6c1.6-0.2,3.2-0.5,4.7-0.8V275.3z M548.8,284h14
			v-4.7h-14V284z M548.8,292.7h14V288h-14V292.7z"/>
		<path class="st2" d="M590.2,280.9l5.1,0.8c0.6,0.2,0.9,0.4,0.9,0.8c0,0.4-0.5,0.9-1.4,1.2c-1.3,4-2.8,7.1-4.2,9.2
			c-1.8,2.7-4.4,5.4-7.9,8.3l-3.9-3.3c3.4-2.5,6-5.2,7.8-7.9C587.8,288.1,589.1,285.1,590.2,280.9z M598.1,291.4l4.7,1.9
			c0.7,0.2,1,0.4,1,0.8c0,0.2-0.4,0.6-1.2,1.2c-2.1,5.6-4.9,11.7-8.4,18.3c6.6-0.4,12.9-1,18.8-1.7c-1.9-2.9-3.9-5.5-5.9-7.9
			l3.5-2.8c4.2,4.4,8.3,10,12.4,16.9l-4.5,3.1c-0.9-1.8-1.9-3.5-2.9-5.2l-29.9,3.6c-0.6,0.9-1.1,1.3-1.6,1.3c-0.6,0-1-0.3-1-0.9
			l-1.9-5.7c2.7,0,5.4-0.1,8-0.2c1.6-3.2,3-6,4-8.6C595.2,300.6,596.8,296,598.1,291.4z M595.2,275.5h17.5
			c0.6,5.7,2.1,10.2,4.7,13.7c1.8,2.5,5,5.5,9.5,9l-4.7,3.3c-4.8-3.9-8.4-7.6-10.6-11.1c-1.9-2.7-3.1-6.2-3.8-10.5h-12.6V275.5z"/>
		<path class="st2" d="M633.9,275.7h40.7v39.8c0,2.4-1.4,4-4.3,4.7c-2.2,0.6-4.4,0.9-6.7,0.9l-1.9-4.9l5.5-0.2
			c1.5-0.1,2.3-0.7,2.3-1.9v-33.9h-35.7V275.7z M636.4,285.5h27.2v4.3h-27.2V285.5z M638.2,295.1h22.9v17H643v3.5h-4.7V295.1z
			 M643,307.8h13.6v-8.3H643V307.8z"/>
	</g>
	<g>
		<g>
			<path class="st2" d="M76.7,221.3c0,18.8-10,28.3-29.9,28.3H28.1v-55.9h18.6C66.8,193.7,76.7,202.9,76.7,221.3z M68.7,221.3
				c0-3.3-0.3-6.2-1-8.8c-0.7-2.6-1.9-4.8-3.5-6.6c-1.7-1.8-3.9-3.2-6.8-4.1c-2.8-1-6.4-1.4-10.7-1.4H35.9v42.6h10.8
				c4.3,0,7.8-0.5,10.7-1.5c2.8-1,5.1-2.4,6.8-4.2c1.7-1.8,2.9-4.1,3.6-6.8C68.4,227.8,68.7,224.7,68.7,221.3z"/>
			<path class="st2" d="M94.8,201.5h-7.5v-7.8h7.5V201.5z M94.8,249.6h-7.5v-40.5h7.5V249.6z"/>
			<path class="st2" d="M133.7,245.5c-4,3.4-9,5.1-15,5.1c-2,0-3.9-0.3-5.7-0.9c-1.8-0.6-3.3-1.4-4.6-2.4c-1.3-1-2.3-2.3-3.1-3.7
				c-0.7-1.4-1.1-3-1.1-4.8c0-9.5,8.5-14.2,25.6-14.2h3.8c0-1.7-0.1-3.3-0.2-4.7c-0.1-1.4-0.5-2.5-1.1-3.4c-0.6-0.9-1.7-1.6-3-2.1
				c-1.4-0.5-3.3-0.7-5.9-0.7c-6.7,0-10.2,2.3-10.4,6.9h-7.6c0.5-8.4,6.6-12.6,18.5-12.6c2.7,0,5.1,0.2,7.2,0.7
				c2.1,0.5,4,1.2,5.5,2.4c1.5,1.1,2.6,2.7,3.4,4.7c0.8,2,1.2,4.5,1.2,7.6v26.2h-7.5V245.5z M133.7,238.9v-9h-5.3
				c-11,0-16.4,2.8-16.4,8.5c0,1,0.2,1.9,0.6,2.7c0.4,0.8,1,1.5,1.8,2c0.8,0.5,1.7,1,2.8,1.2c1.1,0.3,2.3,0.4,3.7,0.4
				c1.2,0,2.5-0.1,3.7-0.4c1.2-0.3,2.4-0.7,3.5-1.2c1.1-0.5,2.1-1.1,3.1-1.9C132.2,240.7,133.1,239.9,133.7,238.9z"/>
			<path class="st2" d="M210.7,249.6H203v-26.2c0-1.7-0.1-3.1-0.4-4.3c-0.2-1.2-0.6-2.2-1.1-2.9c-0.5-0.7-1.2-1.3-2-1.6
				c-0.8-0.3-1.8-0.5-3-0.5c-3.7,0-7.3,2.2-10.9,6.5v29h-7.4v-26.2c0-1.7-0.1-3.1-0.4-4.3c-0.2-1.2-0.6-2.2-1.2-2.9
				c-0.5-0.7-1.2-1.3-2-1.6c-0.8-0.3-1.9-0.5-3-0.5c-3.6,0-7.2,2.2-10.8,6.5v29h-7.5v-40.5h7.5v5.1c3.7-4.1,7.7-6.2,12-6.2
				c6.2,0,10.1,2.5,11.9,7.4c1.4-1.6,2.7-2.9,3.9-3.9c1.2-1,2.3-1.7,3.3-2.2c1-0.5,2-0.9,2.9-1c0.9-0.2,1.9-0.2,2.9-0.2
				c8.8,0,13.2,5,13.2,15V249.6z"/>
			<path class="st2" d="M239.6,208.1c3,0,5.8,0.5,8.3,1.4c2.5,1,4.6,2.3,6.3,4.2c1.7,1.8,3.1,4,4,6.7c0.9,2.6,1.4,5.6,1.4,8.9
				c0,3.4-0.5,6.4-1.4,9c-1,2.6-2.3,4.9-4,6.7c-1.7,1.8-3.8,3.2-6.3,4.1c-2.4,0.9-5.2,1.4-8.2,1.4c-3,0-5.7-0.5-8.1-1.4
				c-2.4-0.9-4.6-2.3-6.3-4.1c-1.8-1.8-3.1-4-4.1-6.7c-1-2.6-1.4-5.7-1.4-9c0-3.3,0.5-6.3,1.4-8.9c1-2.6,2.3-4.9,4-6.7
				c1.7-1.8,3.8-3.2,6.3-4.2C233.9,208.6,236.6,208.1,239.6,208.1z M239.6,244.9c1.8,0,3.4-0.3,4.9-1c1.5-0.7,2.8-1.6,3.8-2.9
				c1.1-1.3,1.9-2.9,2.5-4.9c0.6-2,0.9-4.2,0.9-6.8c0-2.6-0.3-4.8-0.9-6.8c-0.6-1.9-1.4-3.6-2.5-4.9c-1.1-1.3-2.3-2.3-3.8-2.9
				c-1.5-0.7-3.1-1-4.9-1c-1.8,0-3.4,0.3-4.9,1c-1.5,0.6-2.8,1.6-3.8,2.9c-1.1,1.3-1.9,2.9-2.5,4.9c-0.6,1.9-0.9,4.2-0.9,6.8
				c0,2.6,0.3,4.8,0.9,6.8c0.6,2,1.4,3.6,2.5,4.9c1.1,1.3,2.3,2.3,3.8,2.9C236.2,244.6,237.8,244.9,239.6,244.9z"/>
			<path class="st2" d="M276.4,214.3c1.9-2.1,3.9-3.6,6-4.6c2.1-1,4.4-1.5,6.7-1.5c9.6,0,14.4,5,14.4,15v26.5h-7.6v-26.2
				c0-1.7-0.1-3.1-0.4-4.3c-0.3-1.2-0.8-2.1-1.4-2.9c-0.6-0.7-1.5-1.3-2.5-1.6c-1-0.3-2.2-0.5-3.6-0.5c-3.8,0-7.7,2.2-11.6,6.5v29
				h-7.5v-40.5h7.5V214.3z"/>
			<path class="st2" d="M342.3,244.8c-3.4,3.8-7.5,5.7-12.1,5.7c-2.9,0-5.4-0.5-7.6-1.5c-2.2-1-4-2.4-5.5-4.2
				c-1.5-1.8-2.6-4-3.4-6.6c-0.8-2.6-1.1-5.4-1.1-8.6c0-3.3,0.5-6.3,1.4-9c0.9-2.7,2.2-4.9,3.8-6.8c1.6-1.9,3.5-3.3,5.7-4.3
				c2.2-1,4.5-1.5,7.1-1.5c2.3,0,4.5,0.3,6.4,1c1.9,0.7,3.7,1.7,5.3,3.1v-18.6h7.5v55.9h-7.5V244.8z M342.3,237.9v-19.2
				c-3.4-3.3-7.2-4.9-11.3-4.9c-1.6,0-3.1,0.3-4.4,1c-1.3,0.7-2.4,1.7-3.3,3c-0.9,1.3-1.6,3-2.1,5c-0.5,2-0.8,4.3-0.8,7
				c0,5,0.9,8.8,2.7,11.4c1.8,2.6,4.4,3.8,7.6,3.8c2.1,0,4.1-0.6,6-1.7C338.7,242,340.5,240.3,342.3,237.9z"/>
			<path class="st2" d="M446.3,233.3c0,5.3-1.8,9.4-5.5,12.1c-3.7,2.8-9.2,4.1-16.4,4.1h-22.1v-55.9h20.9c3.1,0,5.8,0.3,8.3,1
				c2.5,0.7,4.6,1.6,6.3,2.8c1.7,1.2,3.1,2.7,4.1,4.5c1,1.8,1.4,3.8,1.4,6c0,2.8-0.7,5.1-2.1,7c-1.4,1.9-3.5,3.6-6.4,4.9
				c1.9,0.4,3.6,1.1,5,2c1.4,0.9,2.6,1.9,3.6,3.1c1,1.2,1.7,2.5,2.1,3.9C446.1,230.3,446.3,231.8,446.3,233.3z M410.1,217.1h13.1
				c4.3,0,7.4-0.7,9.5-2c2-1.3,3.1-3.5,3.1-6.6c0-1.4-0.2-2.6-0.7-3.6c-0.5-1-1.2-1.9-2.3-2.6c-1-0.7-2.4-1.2-4.1-1.5
				c-1.7-0.3-3.8-0.5-6.2-0.5h-12.3V217.1z M410.1,242.9h14.2c9.3,0,13.9-3.2,13.9-9.6c0-1.6-0.2-3.1-0.7-4.3
				c-0.5-1.2-1.3-2.2-2.4-3c-1.1-0.8-2.7-1.4-4.6-1.8c-1.9-0.4-4.3-0.6-7.2-0.6h-13.2V242.9z"/>
			<path class="st2" d="M464.5,201.5H457v-7.8h7.5V201.5z M464.5,249.6H457v-40.5h7.5V249.6z"/>
			<path class="st2" d="M493.6,208.1c3,0,5.8,0.5,8.3,1.4c2.5,1,4.6,2.3,6.3,4.2c1.7,1.8,3.1,4,4,6.7c0.9,2.6,1.4,5.6,1.4,8.9
				c0,3.4-0.5,6.4-1.4,9c-1,2.6-2.3,4.9-4,6.7c-1.7,1.8-3.8,3.2-6.3,4.1c-2.4,0.9-5.2,1.4-8.2,1.4c-3,0-5.7-0.5-8.1-1.4
				c-2.4-0.9-4.6-2.3-6.3-4.1c-1.8-1.8-3.1-4-4.1-6.7c-1-2.6-1.4-5.7-1.4-9c0-3.3,0.5-6.3,1.4-8.9c1-2.6,2.3-4.9,4-6.7
				c1.7-1.8,3.8-3.2,6.3-4.2C487.9,208.6,490.6,208.1,493.6,208.1z M493.6,244.9c1.8,0,3.4-0.3,4.9-1c1.5-0.7,2.8-1.6,3.8-2.9
				c1.1-1.3,1.9-2.9,2.5-4.9c0.6-2,0.9-4.2,0.9-6.8c0-2.6-0.3-4.8-0.9-6.8c-0.6-1.9-1.4-3.6-2.5-4.9c-1.1-1.3-2.3-2.3-3.8-2.9
				c-1.5-0.7-3.1-1-4.9-1c-1.8,0-3.4,0.3-4.9,1c-1.5,0.6-2.8,1.6-3.8,2.9c-1.1,1.3-1.9,2.9-2.5,4.9c-0.6,1.9-0.9,4.2-0.9,6.8
				c0,2.6,0.3,4.8,0.9,6.8c0.6,2,1.4,3.6,2.5,4.9c1.1,1.3,2.3,2.3,3.8,2.9C490.2,244.6,491.8,244.9,493.6,244.9z"/>
			<path class="st2" d="M531.7,214.7v34.9h-7.5v-34.9h-6.3v-5.6h6.3v-3.6c0-8.6,4-12.9,11.9-12.9c1.3,0,2.4,0.1,3.3,0.1
				c0.9,0.1,1.7,0.2,2.3,0.4v6.2c-0.8-0.1-1.5-0.2-2.2-0.3c-0.7,0-1.5-0.1-2.2-0.1c-1.9,0-3.3,0.5-4.2,1.5c-0.9,1-1.3,2.7-1.3,5v3.6
				h8v5.6H531.7z"/>
			<path class="st2" d="M573.5,244.5c-3.8,4.1-8,6.1-12.8,6.1c-9.6,0-14.4-5-14.4-15v-26.5h7.7v26.1c0,1.7,0.1,3.1,0.4,4.3
				c0.3,1.2,0.8,2.1,1.4,2.9c0.6,0.7,1.5,1.3,2.5,1.6c1,0.4,2.2,0.5,3.6,0.5c4.2,0,8.1-2.2,11.6-6.5v-28.9h7.5v40.5h-7.5V244.5z"/>
			<path class="st2" d="M600.4,214.3c1.9-2.1,3.9-3.6,6-4.6c2.1-1,4.4-1.5,6.7-1.5c9.6,0,14.4,5,14.4,15v26.5h-7.6v-26.2
				c0-1.7-0.1-3.1-0.4-4.3c-0.3-1.2-0.8-2.1-1.4-2.9c-0.6-0.7-1.5-1.3-2.5-1.6c-1-0.3-2.2-0.5-3.6-0.5c-3.8,0-7.7,2.2-11.6,6.5v29
				h-7.5v-40.5h7.5V214.3z"/>
			<path class="st2" d="M666.4,244.8c-3.4,3.8-7.5,5.7-12.1,5.7c-2.9,0-5.4-0.5-7.6-1.5c-2.2-1-4-2.4-5.5-4.2
				c-1.5-1.8-2.6-4-3.4-6.6c-0.8-2.6-1.1-5.4-1.1-8.6c0-3.3,0.5-6.3,1.4-9c0.9-2.7,2.2-4.9,3.8-6.8c1.6-1.9,3.5-3.3,5.7-4.3
				c2.2-1,4.5-1.5,7.1-1.5c2.3,0,4.5,0.3,6.4,1c1.9,0.7,3.7,1.7,5.3,3.1v-18.6h7.5v55.9h-7.5V244.8z M666.4,237.9v-19.2
				c-3.4-3.3-7.2-4.9-11.3-4.9c-1.6,0-3.1,0.3-4.4,1c-1.3,0.7-2.4,1.7-3.3,3c-0.9,1.3-1.6,3-2.1,5c-0.5,2-0.8,4.3-0.8,7
				c0,5,0.9,8.8,2.7,11.4c1.8,2.6,4.4,3.8,7.6,3.8c2.1,0,4.1-0.6,6-1.7C662.7,242,664.6,240.3,666.4,237.9z"/>
		</g>
	</g>
</g>
</svg>
