<?xml version="1.0" encoding="utf-8"?>
<!-- Generator: Adobe Illustrator 25.0.0, SVG Export Plug-In . SVG Version: 6.00 Build 0)  -->
<svg version="1.1" id="圖層_1" xmlns="http://www.w3.org/2000/svg" xmlns:xlink="http://www.w3.org/1999/xlink" x="0px" y="0px"
	 viewBox="0 0 946 198.7" style="enable-background:new 0 0 946 198.7;" xml:space="preserve">
<style type="text/css">
	.st0{fill:#A08143;}
	.st1{fill:#3E3A39;}
</style>
<g>
	<path class="st0" d="M126.2,116l-20.1-88.6h-25c-2.9,0-6.7,1.2-9.7,2.8L126.2,116z"/>
	<path class="st0" d="M182.6,28.7c-2.2-0.8-4.5-1.3-6.4-1.3h-1.4h-29l-17.6,89.7L182.6,28.7z"/>
	<path class="st0" d="M51.9,47.1L40.4,57.4c-2.8,2.5-3.2,6.9-1,9.9l43.7,53l40,48.5L51.9,47.1z"/>
	<polygon class="st0" points="144.1,27.4 108,27.4 127.3,112.9 	"/>
	<path class="st0" d="M219.3,65.7c1.2-2.8,0.5-6.2-1.9-8.3l-13.6-12L131.9,170c0.1-0.1,0.1-0.1,0.2-0.2l86.6-103.4
		C218.9,66.2,219.1,65.9,219.3,65.7z"/>
	<path class="st0" d="M53.2,45.9l73.4,125.4c0.8,0.2,1.6,0.2,2.4,0.1l73.3-127.3l-13.5-12c-1.5-1.3-3.6-2.5-5.9-3.3l-55.3,142.3
		L70.9,30.6c-0.6,0.3-1.1,0.7-1.6,1.1c-0.4,0.3-0.7,0.6-1.1,0.9L53.2,45.9z"/>
</g>
<g>
	<g>
		<path class="st1" d="M268,112.6l3.5,1.2c0.6,0.1,0.9,0.3,0.9,0.6c0,0.2-0.3,0.5-0.8,0.8c-0.3,0.5-0.6,1-0.9,1.4
			c1.2,1.6,2.5,3,3.9,4.3c0.6-0.9,1.1-1.7,1.4-2.4c0.6-1.3,1-3.1,1.3-5.4l3.7,0.5c0.4,0,0.7,0.2,0.7,0.5s-0.3,0.6-0.8,1
			c-0.1,0.6-0.2,1.1-0.4,1.7h2.3v-4.3l3.3,0.3c0.7,0.1,1,0.3,1,0.6c0,0.2-0.2,0.4-0.6,0.8v2.7h3.1v3.1h-3.1v3h3.7v3.3h-2.3v3.4
			c1.1-0.4,2.1-0.8,3.1-1.3v2.9c-1.4,0.8-3.5,1.8-6.4,3c-0.2,0.4-0.4,0.6-0.6,0.6s-0.4-0.2-0.4-0.6l-0.8-3.3
			c0.6-0.2,1.2-0.3,1.9-0.5v-4.3h-1.6c-0.1,2.4-0.6,4.2-1.3,5.4c-0.7,1.4-2.3,2.6-4.8,3.7l-2.3-2.5c2-0.8,3.3-1.6,4-2.6
			c0.6-0.8,1-2.1,1.1-4h-3.3v-3.3h6.4v-3h-3.4c-0.4,0.9-1,1.8-1.7,2.7l-1.5-0.6l-3,3.2c-1.5-1.7-2.9-3.6-4.2-5.8
			c-1.6,2.4-3.4,4.6-5.3,6.6h12v3.9h-4.3v5.8h5.2v3.9h-5.2v13.5c2.4-0.3,4.7-0.6,7-0.9v3.7c-3.3,0.6-8.4,1.4-15.5,2.5
			c-0.3,0.6-0.7,0.8-1,0.8s-0.5-0.2-0.6-0.7l-1.1-4.4c2.4-0.1,4.7-0.3,7.1-0.5v-13.9h-6.5V136h6.5v-5.8h-4.8v-2.6
			c-0.3,0.3-0.7,0.7-1,1l-3.3-2.7C262,122.2,265.4,117.8,268,112.6z M263.6,142.4c0.7,2.7,1.3,5.6,1.9,8.9l-3.3,0.8
			c-0.5-3.2-1.3-6.2-2.3-9.1L263.6,142.4z M274.4,142.4l3.2,1.2c0.5,0.1,0.7,0.3,0.7,0.6c0,0.2-0.3,0.5-0.8,0.8
			c-0.4,1.9-1.1,3.9-1.9,6.2l-2.9-0.9c0.3-1.3,0.6-2.4,0.9-3.5C273.9,145.4,274.2,143.9,274.4,142.4z M280.6,135.6h23.7v17.7h-5.1
			c1.9,1.6,4.4,2.9,7.4,4.1l-4,2.9c-2.8-1.5-5.2-3.3-7.2-5.4l2.7-1.6H288l2,1.1c0.3,0.2,0.5,0.5,0.5,0.7c0,0.3-0.2,0.6-0.6,0.7
			c-1.8,1.4-4.4,2.9-7.8,4.5l-3.7-2.9c2.8-1,5.4-2.4,7.8-4.1h-5.5L280.6,135.6L280.6,135.6z M284.9,140.7h15.2v-2.1h-15.2V140.7z
			 M284.9,145.4h15.2v-2.1h-15.2V145.4z M300.1,150.2v-2.1h-15.2v2.1H300.1z M292.5,113.3l3.7,0.5c0.4,0,0.7,0.2,0.7,0.5
			s-0.3,0.6-0.8,1c-0.1,0.6-0.2,1.1-0.4,1.7h2.1v-4.3l3.3,0.3c0.7,0.1,1,0.3,1,0.6c0,0.2-0.2,0.4-0.6,0.8v2.7h4.7v3.1h-4.7v3h5.4
			v3.3h-4.1v3.9c0,0.8,0.3,1.2,1,1.2h0.2c0.3,0,0.6-0.1,0.8-0.4c0.2-0.2,0.3-1.1,0.5-2.5l3.3,0.8c-0.3,2.1-0.7,3.5-1.3,4.2
			c-0.7,0.7-1.5,1-2.4,1h-1.7c-2.5,0-3.7-0.9-3.7-2.7v-5.6h-1.4c-0.2,2.3-0.6,4.1-1.2,5.3c-0.7,1.3-2.2,2.5-4.5,3.6l-2.3-2.5
			c1.8-0.7,3-1.5,3.7-2.5c0.6-0.8,0.9-2.1,1-3.9h-3.5v-3.3h6.6v-3h-3.3c-0.4,0.7-0.9,1.5-1.5,2.3l-3.3-1.3c0.7-1,1.3-1.9,1.7-2.7
			C291.8,117.2,292.2,115.5,292.5,113.3z"/>
		<path class="st1" d="M317,115.8h44v4.7h-24.1c-1.9,5.4-3.9,9.7-5.9,12.8h26.4v26.2h-4.7v-3.7h-20.2v3.7h-4.7v-21.7
			c-2.5,2.9-5.6,5.9-9.5,8.9l-3.9-3.3c5.4-3.9,9.5-8,12.3-12.2c1.8-2.4,3.4-6,5-10.6H317V115.8z M332.3,151.4h20.2v-13.9h-20.2
			V151.4z"/>
		<path class="st1" d="M381,114.1l5,1.7c0.5,0.2,0.8,0.4,0.8,0.8c0,0.2-0.6,0.5-1.7,0.8c-0.7,2.3-1.3,4.4-2.1,6.4h11.1v-11.1
			l4.3,0.4c0.8,0,1.2,0.3,1.2,0.7c0,0.2-0.3,0.6-0.8,1.2v8.9h15.9v4.3h-15.9v10.3h13.8v4.3h-13.8v10.8h18.6v4.3h-45.2v-4.3h21.9
			v-10.8h-14.4v-4.3h14.4v-10.3H381c-0.1,0.2-0.2,0.5-0.4,0.7c-1.6,3-3.4,5.8-5.4,8.2l-4.7-3.1c2.5-2.8,4.5-5.6,6-8.5
			C378.2,122.6,379.6,118.8,381,114.1z"/>
		<path class="st1" d="M426.5,121.1h8V112l5.1,0.6c0.6,0.1,0.9,0.3,0.9,0.6c0,0.4-0.4,0.9-1.2,1.4v6.4h6v4.5h-6v11.2
			c2.2-1,4.4-2,6.6-3v4.5l-6.6,2.9v13.4c0,2.1-0.6,3.7-1.8,4.6c-1,1-3.4,1.5-7.3,1.5l-1.9-4.7h4c1.4,0,2.1-0.8,2.2-2.3v-10.4
			l-5.4,2.4c-0.5,1.1-1,1.7-1.4,1.7c-0.3,0-0.5-0.3-0.7-0.8l-1.8-4.7c3.1-0.9,6.2-2,9.3-3.1v-13.2h-8L426.5,121.1L426.5,121.1z
			 M446.7,119.9h10.1V112l4.3,0.4c0.8,0.1,1.2,0.3,1.2,0.7c0,0.2-0.3,0.7-0.8,1.2v5.6h10.7v4.3h-10.7v8.5h6c0.6-0.4,0.9-0.6,1-0.6
			c0.3,0,0.7,0.2,1,0.5l2.4,2.3c0.3,0.3,0.5,0.6,0.5,1c0,0.3-0.5,0.7-1.4,1.2c-2.2,6.4-4.6,11.2-7.2,14.3c2.8,2,6.3,4.1,10.5,6.1
			l-3.7,3.9c-4.1-2.2-7.4-4.5-10.2-6.8c-3.3,2.7-7.7,4.9-13.2,6.6l-3.1-4.1c3.6-0.8,6.4-1.7,8.6-2.8c1.6-0.8,3.1-1.7,4.4-2.7
			c-0.6-0.7-1.1-1.3-1.7-2c-2.5-3-4.3-7.3-5.4-12.8h-2.4v-4.1h9.1v-8.5h-10.1v-4.3H446.7z M454.4,136.8c1,4.4,2.7,7.9,5.1,10.5
			c0.3,0.4,0.7,0.7,1,1.1c0.2-0.2,0.3-0.4,0.5-0.6c1.9-2.4,3.6-6.1,5.2-11H454.4z"/>
		<path class="st1" d="M480.9,121.3h8v-9.1l5.1,0.6c0.6,0,0.9,0.3,0.9,0.7c0,0.4-0.4,0.9-1.2,1.4v6.4h6.6v4.5h-6.6v11.4
			c2.3-0.8,4.7-1.7,7-2.7v4.5l-7,2.6v13c0,2.1-0.6,3.7-1.7,4.6c-1,1-3.3,1.5-7,1.5l-1.9-4.7h3.7c1.3,0,2-0.8,2.1-2.3v-10.4l-4.5,1.7
			c-0.6,1.1-1,1.7-1.5,1.7c-0.3,0-0.5-0.3-0.7-0.9l-1.8-4.7c2.9-0.7,5.7-1.5,8.5-2.5v-13h-8V121.3z M504.9,113.7h15.7v13.6
			c0.1,1.1,0.8,1.7,2.1,1.7c0.9,0,1.5-0.3,1.8-0.8s0.5-2,0.7-4.6l4.7,0.8c-0.3,3.8-1,6.3-2.1,7.5c-0.8,0.9-2.5,1.4-5.1,1.4
			c-3.2-0.1-5.1-0.7-5.8-1.7c-0.5-0.8-0.8-1.8-0.8-3.1v-10.3h-6.6v1.6c0,2.8-0.5,5.2-1.7,7.5c-0.7,1.6-2.2,3.7-4.5,6.2l-4.5-2.3
			c2.2-2,3.7-3.7,4.5-5.2c1.1-2.1,1.7-4.2,1.7-6.2v-6.1H504.9z M502,135.1h18.7c0.8-0.5,1.2-0.8,1.3-0.8c0.4,0,0.7,0.2,1.1,0.5
			l2.5,2.4c0.3,0.3,0.5,0.6,0.5,1c0,0.3-0.6,0.8-1.7,1.2c-2,5.8-4.2,10-6.7,12.8c0.9,0.6,1.8,1.2,2.8,1.7c2.2,1.1,5.1,2,8.8,2.6
			l-3.9,4.3c-3.5-1.1-6.5-2.5-9-4.1c-0.7-0.4-1.4-0.9-2-1.4c-3,2.3-7,4.2-11.9,5.7l-3.3-4.3c3.3-0.7,5.9-1.5,7.9-2.4
			c1.4-0.6,2.7-1.4,3.8-2.2c-0.4-0.4-0.8-0.9-1.2-1.3c-1.7-2.2-3.1-4.6-4.1-7.2c-0.6-1.5-0.9-2.9-1.2-4.3H502V135.1z M508.5,139.2
			c0.3,1.3,0.8,2.5,1.3,3.7c0.9,2,2.1,3.9,3.8,5.8c0.2,0.2,0.3,0.4,0.5,0.6c0.2-0.2,0.3-0.4,0.5-0.7c1.7-2.1,3.2-5.2,4.6-9.4
			L508.5,139.2L508.5,139.2z"/>
		<path class="st1" d="M552.9,123v3.8c-2.1,1.2-5.1,2.7-8.9,4.5h9.2l-2.8-1.7c3.4-1,5.9-1.8,7.3-2.5c2.2-1,4-2.2,5.5-3.6
			c1-1,1.8-2.3,2.3-3.9h-6.4c-1.3,1.2-2.8,2.4-4.4,3.5l-4.1-2.3c4-2.4,7.2-5.4,9.7-8.9l3.8,1.3c0.5,0.2,0.7,0.4,0.7,0.6
			c0,0.1-0.1,0.3-0.4,0.6c-0.3,0.1-0.9,0.6-1.7,1.5h16.6l1.2-0.7c0.4,0,0.8,0.2,1.2,0.5l2.5,1.5c0.3,0.2,0.5,0.4,0.5,0.7
			c0,0.4-0.3,0.8-1,1.2l-5,6l-3.9-1.4l2.8-4.1H571c-0.2,0.1-0.4,0.3-0.6,0.5c-0.2,0.6-0.5,1.1-0.7,1.6c1.3,1.4,2.7,2.7,4.4,3.7
			c2,1.2,5.7,2.4,11,3.8l-4.5,3.7c-0.8-0.3-1.4-0.5-2.1-0.8v21.3h-9.6c4.4,1.3,9.8,2.4,16,3.3l-3.7,3.9c-6.8-1.5-12.6-3.3-17.3-5.4
			l1.7-1.8h-9.7l2.1,1.5c0.2,0.2,0.4,0.4,0.4,0.7c0,0.2-0.3,0.4-1,0.6c-6,2-11.7,3.5-16.9,4.5l-3.7-3.5c6.3-1,11.6-2.3,16-3.9h-9.2
			v-21.8c-1.2,0.6-2.5,1.2-3.9,1.8c-0.3,0.5-0.7,0.8-1,0.8s-0.5-0.2-0.5-0.7l-1.1-4.4C542.4,127.7,547.7,125.7,552.9,123z
			 M541.4,112.8c3.9,1.8,7.1,3.7,9.7,5.8l-2.9,3.1c-3-2.1-6.3-4-9.9-5.7L541.4,112.8z M548.2,137.6h25.6v-2.7h-25.6V137.6z
			 M548.2,143.6h25.6v-2.7h-25.6V143.6z M573.8,149.6V147h-25.6v2.6H573.8z M556.9,131.3h19.6c-2.6-1.2-4.6-2.4-5.9-3.5
			c-1-0.8-1.9-1.7-2.8-2.8c-0.4,0.5-0.9,1-1.4,1.4c-1.2,1.1-2.8,2-4.7,2.9C560.5,129.9,558.9,130.5,556.9,131.3z"/>
		<path class="st1" d="M595.8,118.6v-4.1h14.6v40.7c0,2.1-1,3.4-3.1,4c-1.6,0.5-3.3,0.8-4.9,0.8l-1.7-4.3l3.8-0.1
			c1.1-0.1,1.6-0.6,1.6-1.6v-11.3h-6.2c-0.2,2.1-0.4,4.2-0.7,6.2c-0.6,4.2-1.5,7.9-2.8,11.1l-4.3-2.3c1.3-3.2,2.3-6.4,2.7-9.7
			c0.7-4.2,1-8.3,1-12.4L595.8,118.6L595.8,118.6z M600.1,126.3h6v-7.6h-6V126.3z M600.1,138.4h6v-8.1h-6v5.2
			C600.1,136.6,600.1,137.5,600.1,138.4z M617.2,118.6v-4.1h15.1V125c0,1.5,0.2,2.3,0.6,2.3h2.6c0.3,0,0.5-0.1,0.7-0.4
			c0.2-0.4,0.5-1.7,0.8-4l4.3,1.4c-0.7,3.2-1.5,5.2-2.5,5.9c-1,0.8-2.3,1.2-4.1,1.2h-2.3c-3.1,0-4.7-1.8-4.7-5.4v-7.5h-6v3.3
			c0,2.1-0.5,4-1.4,5.8c-0.9,1.8-2.3,3.5-4.2,4.9l-4.5-2.3c2-1.2,3.4-2.4,4.2-3.7c1-1.6,1.5-3.2,1.4-4.8L617.2,118.6L617.2,118.6z
			 M613.3,134.1h19c0.6-0.4,0.9-0.6,1-0.6c0.3,0,0.7,0.2,1,0.5l2.4,2.3c0.3,0.3,0.5,0.6,0.5,0.9c0,0.3-0.5,0.8-1.4,1.2
			c-2,5.9-4.2,10.3-6.6,13c0.8,0.6,1.7,1.2,2.6,1.7c2.1,1.1,4.9,2,8.3,2.7l-3.9,4.3c-3.3-1.1-6.1-2.5-8.5-4.1c-0.6-0.5-1.3-1-2-1.5
			c-2.8,2.1-6.3,3.8-10.6,5.2l-3.1-4.1c3.1-0.8,5.5-1.6,7.4-2.4c1.1-0.6,2.2-1.2,3.1-1.9c-0.4-0.5-0.8-1-1.2-1.4
			c-1.6-2.1-2.9-4.5-3.8-7.2c-0.6-1.5-0.9-3-1.2-4.4h-3.1L613.3,134.1L613.3,134.1z M620.4,138.2c0.3,1.3,0.7,2.6,1.2,3.8
			c0.8,2,2,4,3.5,5.8c0.2,0.2,0.4,0.4,0.6,0.6c0.3-0.3,0.5-0.6,0.7-0.9c1.6-2.1,3-5.2,4.4-9.3L620.4,138.2L620.4,138.2z"/>
		<path class="st1" d="M660.1,112.6l4.2,2c0.5,0.2,0.7,0.4,0.7,0.7c0,0.6-0.4,1-1.2,1.2c-1.6,3.5-3.1,6.6-4.5,9.2v34.5h-4.7v-26.9
			c-1.3,1.9-2.8,3.8-4.3,5.8l-3.5-3.4c3-3.6,5.6-7.2,7.6-10.8C656.2,121.7,658.2,117.6,660.1,112.6z M669.6,118.6l4.5,1.5
			c0.4,0.2,0.7,0.4,0.7,0.7c0,0.2-0.6,0.4-1.7,0.6c-1.1,3.2-2.4,6-4,8.4c-1.4,2.2-3.1,4.2-4.9,6.1l-4.1-2.7c2.3-2.1,4.1-4.2,5.5-6.3
			C667.1,124.9,668.4,122.1,669.6,118.6z M667.1,134.1h22.7c0,10.2-0.3,16.6-1,19.2c-0.4,2.5-1.2,4.3-2.6,5.3
			c-1.4,1-3.8,1.5-7.2,1.5l-2.1-4.5c3.5,0,5.5-0.3,6.1-0.9c0.6-0.4,1.1-1.5,1.4-3.2c0.5-1.7,0.8-6.1,0.8-13.3h-7.7
			c-0.3,4.1-0.8,7.4-1.6,9.9c-1,3-2.2,5.4-3.6,7.2c-1.4,1.8-3.3,3.4-5.7,5l-4.5-3.5c2.6-1.2,4.6-2.6,5.7-4.2
			c1.4-1.6,2.5-3.6,3.4-5.9c0.8-2.2,1.3-5,1.5-8.5h-5.9v-4.1H667.1z M674.4,114.7H687c0.4,4.6,1.5,8.4,3.4,11.2
			c1.3,2.1,3.6,4.5,6.8,7.4l-4.1,2.8c-3.5-3.2-6.1-6.3-7.7-9.2c-1.3-2.1-2.2-4.8-2.6-8.2h-8.3v-4H674.4z"/>
		<path class="st1" d="M703.8,119.7h16.4c1.1-2.2,2.1-4.6,3-7.2l3.7,1.5c0.7,0.2,1.1,0.5,1.1,1c0,0.3-0.3,0.5-1,0.6
			c-0.6,1.4-1.2,2.8-1.8,4.1h25.2v4.1h-27.2c-1.1,2.1-2.2,4-3.3,5.6h23.8v26c0,2.2-1.2,3.7-3.5,4.3c-1.8,0.5-3.6,0.8-5.4,0.8
			l-1.9-4.5l4.4-0.1c1.2,0,1.8-0.7,1.8-2v-2.8h-20v9.1h-4.5v-24.5c-2.6,2.4-5.5,4.5-8.9,6.3l-3.1-4.5c4.1-1.5,8-4.4,11.8-8.8
			c1.3-1.4,2.5-3,3.6-4.8h-14.1L703.8,119.7L703.8,119.7z M719.1,138.4h20v-4.9h-20V138.4z M719.1,147.1h20v-4.7h-20V147.1z"/>
		<path class="st1" d="M774.4,113.7l3.9,3l-6.4,13.6c3.6,3.9,5.4,7.5,5.4,10.7c0,3.5-0.9,6.3-2.8,8.4c-1.8,2-4.2,3-7.1,3l-1.9-4.5
			c3-0.5,5-1.3,5.9-2.6c0.9-1,1.3-2.6,1.3-4.6c0-2.5-1.8-5.8-5.4-9.9l5.1-12.4h-7.5v42.5h-4.5v-46.6h13.4
			C774,113.9,774.2,113.7,774.4,113.7z M779.7,114.5h23.1v21.3h-8.4c0.7,2.9,1.5,5.4,2.4,7.6c2.4-1.8,4.5-3.7,6.4-5.5l3.2,3.1
			c0.2,0.2,0.3,0.5,0.3,0.7c0,0.3-0.5,0.5-1.4,0.5c-2.1,1.6-4.4,3.1-6.7,4.7c1.9,3.1,4.8,6.3,8.9,9.5l-4.7,3.8
			c-2.5-2.7-4.6-5.3-6.2-7.6c-1.8-2.7-3.1-5.4-4-8c-0.9-2.1-1.7-5-2.4-8.7h-5.9v17.5c3-0.8,6-1.7,8.9-2.7v3.9
			c-3.3,1.3-8.4,3-15.5,5.2c-0.3,0.5-0.7,0.8-1,0.8s-0.5-0.2-0.6-0.7l-1.1-4.6c1.6-0.2,3.2-0.5,4.7-0.8V114.5z M784.3,123.2h14v-4.7
			h-14V123.2z M784.3,131.8h14v-4.7h-14V131.8z"/>
		<path class="st1" d="M825.7,120.1l5.1,0.8c0.6,0.2,0.9,0.4,0.9,0.8s-0.5,0.9-1.4,1.2c-1.3,4-2.8,7.1-4.2,9.2
			c-1.8,2.7-4.4,5.4-7.9,8.3l-3.9-3.3c3.4-2.5,6-5.2,7.8-7.9C823.3,127.3,824.5,124.3,825.7,120.1z M833.5,130.6l4.7,1.9
			c0.7,0.2,1,0.4,1,0.8c0,0.2-0.4,0.6-1.2,1.2c-2.1,5.6-4.9,11.7-8.4,18.3c6.6-0.4,12.9-1,18.8-1.7c-1.9-2.9-3.9-5.5-5.9-7.9
			l3.5-2.8c4.2,4.4,8.3,10,12.4,16.9l-4.5,3.1c-0.9-1.8-1.9-3.5-2.9-5.2l-29.9,3.6c-0.6,0.9-1.1,1.3-1.6,1.3c-0.6,0-1-0.3-1-0.9
			l-1.9-5.7c2.7,0,5.4-0.1,8-0.2c1.6-3.2,3-6,4-8.6C830.6,139.8,832.2,135.2,833.5,130.6z M830.6,114.7h17.5
			c0.6,5.7,2.1,10.2,4.7,13.7c1.8,2.5,5,5.5,9.5,9l-4.7,3.3c-4.8-3.9-8.4-7.6-10.6-11.1c-1.9-2.7-3.1-6.2-3.8-10.5h-12.6
			L830.6,114.7L830.6,114.7z"/>
		<path class="st1" d="M869.4,114.9H910v39.8c0,2.4-1.4,4-4.3,4.7c-2.2,0.6-4.4,0.9-6.7,0.9l-1.9-4.9l5.5-0.2
			c1.5-0.1,2.3-0.7,2.3-1.9v-33.9h-35.7v-4.5H869.4z M871.8,124.7H899v4.3h-27.2V124.7z M873.7,134.3h22.9v17h-18.2v3.5h-4.7V134.3z
			 M878.4,146.9H892v-8.3h-13.6V146.9z"/>
	</g>
	<g>
		<g>
			<path class="st1" d="M312.2,60.5c0,18.8-10,28.3-29.9,28.3h-18.6v-56h18.6C302.2,32.8,312.2,42.1,312.2,60.5z M304.2,60.5
				c0-3.3-0.3-6.2-1-8.8s-1.9-4.8-3.5-6.6c-1.7-1.8-3.9-3.2-6.8-4.1c-2.8-1-6.4-1.4-10.7-1.4h-10.8v42.6h10.8
				c4.3,0,7.8-0.5,10.7-1.5c2.8-1,5.1-2.4,6.8-4.2c1.7-1.8,2.9-4.1,3.6-6.8C303.8,66.9,304.2,63.9,304.2,60.5z"/>
			<path class="st1" d="M330.2,40.6h-7.5v-7.8h7.5V40.6z M330.2,88.8h-7.5V48.3h7.5V88.8z"/>
			<path class="st1" d="M369.2,84.6c-4,3.4-9,5.1-15,5.1c-2,0-3.9-0.3-5.7-0.9c-1.8-0.6-3.3-1.4-4.6-2.4c-1.3-1-2.3-2.3-3.1-3.7
				c-0.7-1.4-1.1-3-1.1-4.8c0-9.5,8.5-14.2,25.6-14.2h3.8c0-1.7-0.1-3.3-0.2-4.7s-0.5-2.5-1.1-3.4s-1.7-1.6-3-2.1
				c-1.4-0.5-3.3-0.7-5.9-0.7c-6.7,0-10.2,2.3-10.4,6.9h-7.6c0.5-8.4,6.6-12.6,18.5-12.6c2.7,0,5.1,0.2,7.2,0.7s4,1.2,5.5,2.4
				c1.5,1.1,2.6,2.7,3.4,4.7s1.2,4.5,1.2,7.6v26.2h-7.5L369.2,84.6L369.2,84.6z M369.2,78.1v-9h-5.3c-11,0-16.4,2.8-16.4,8.5
				c0,1,0.2,1.9,0.6,2.7c0.4,0.8,1,1.5,1.8,2s1.7,1,2.8,1.2c1.1,0.3,2.3,0.4,3.7,0.4c1.2,0,2.5-0.1,3.7-0.4s2.4-0.7,3.5-1.2
				s2.1-1.1,3.1-1.9C367.7,79.9,368.5,79,369.2,78.1z"/>
			<path class="st1" d="M446.1,88.8h-7.7V62.6c0-1.7-0.1-3.1-0.4-4.3c-0.2-1.2-0.6-2.2-1.1-2.9s-1.2-1.3-2-1.6s-1.8-0.5-3-0.5
				c-3.7,0-7.3,2.2-10.9,6.5v29h-7.4V62.6c0-1.7-0.1-3.1-0.4-4.3c-0.2-1.2-0.6-2.2-1.2-2.9c-0.5-0.7-1.2-1.3-2-1.6s-1.9-0.5-3-0.5
				c-3.6,0-7.2,2.2-10.8,6.5v29h-7.5V48.3h7.5v5.1c3.7-4.1,7.7-6.2,12-6.2c6.2,0,10.1,2.5,11.9,7.4c1.4-1.6,2.7-2.9,3.9-3.9
				c1.2-1,2.3-1.7,3.3-2.2s2-0.9,2.9-1c0.9-0.2,1.9-0.2,2.9-0.2c8.8,0,13.2,5,13.2,15v26.5H446.1z"/>
			<path class="st1" d="M475.1,47.3c3,0,5.8,0.5,8.3,1.4c2.5,1,4.6,2.3,6.3,4.2c1.7,1.8,3.1,4,4,6.7c0.9,2.6,1.4,5.6,1.4,8.9
				c0,3.4-0.5,6.4-1.4,9c-1,2.6-2.3,4.9-4,6.7c-1.7,1.8-3.8,3.2-6.3,4.1c-2.4,0.9-5.2,1.4-8.2,1.4s-5.7-0.5-8.1-1.4
				s-4.6-2.3-6.3-4.1c-1.8-1.8-3.1-4-4.1-6.7c-1-2.6-1.4-5.7-1.4-9s0.5-6.3,1.4-8.9c1-2.6,2.3-4.9,4-6.7s3.8-3.2,6.3-4.2
				C469.3,47.8,472.1,47.3,475.1,47.3z M475.1,84c1.8,0,3.4-0.3,4.9-1s2.8-1.6,3.8-2.9c1.1-1.3,1.9-2.9,2.5-4.9s0.9-4.2,0.9-6.8
				c0-2.6-0.3-4.8-0.9-6.8c-0.6-1.9-1.4-3.6-2.5-4.9c-1.1-1.3-2.3-2.3-3.8-2.9c-1.5-0.7-3.1-1-4.9-1s-3.4,0.3-4.9,1
				s-2.8,1.6-3.8,2.9c-1.1,1.3-1.9,2.9-2.5,4.9c-0.6,1.9-0.9,4.2-0.9,6.8s0.3,4.8,0.9,6.8s1.4,3.6,2.5,4.9s2.3,2.3,3.8,2.9
				C471.6,83.7,473.3,84,475.1,84z"/>
			<path class="st1" d="M511.8,53.4c1.9-2.1,3.9-3.6,6-4.6s4.4-1.5,6.7-1.5c9.6,0,14.4,5,14.4,15v26.5h-7.6V62.6
				c0-1.7-0.1-3.1-0.4-4.3c-0.3-1.2-0.8-2.1-1.4-2.9c-0.6-0.7-1.5-1.3-2.5-1.6s-2.2-0.5-3.6-0.5c-3.8,0-7.7,2.2-11.6,6.5v29h-7.5
				V48.3h7.5L511.8,53.4L511.8,53.4z"/>
			<path class="st1" d="M577.7,84c-3.4,3.8-7.5,5.7-12.1,5.7c-2.9,0-5.4-0.5-7.6-1.5c-2.2-1-4-2.4-5.5-4.2c-1.5-1.8-2.6-4-3.4-6.6
				c-0.8-2.6-1.1-5.4-1.1-8.6c0-3.3,0.5-6.3,1.4-9s2.2-4.9,3.8-6.8c1.6-1.9,3.5-3.3,5.7-4.3s4.5-1.5,7.1-1.5c2.3,0,4.5,0.3,6.4,1
				s3.7,1.7,5.3,3.1V32.8h7.5v55.9h-7.5L577.7,84L577.7,84z M577.7,77.1V57.9c-3.4-3.3-7.2-4.9-11.3-4.9c-1.6,0-3.1,0.3-4.4,1
				c-1.3,0.7-2.4,1.7-3.3,3c-0.9,1.3-1.6,3-2.1,5s-0.8,4.3-0.8,7c0,5,0.9,8.8,2.7,11.4s4.4,3.8,7.6,3.8c2.1,0,4.1-0.6,6-1.7
				C574.1,81.2,575.9,79.5,577.7,77.1z"/>
			<path class="st1" d="M681.7,72.5c0,5.3-1.8,9.4-5.5,12.1c-3.7,2.8-9.2,4.1-16.4,4.1h-22.1V32.8h20.9c3.1,0,5.8,0.3,8.3,1
				s4.6,1.6,6.3,2.8s3.1,2.7,4.1,4.5s1.4,3.8,1.4,6c0,2.8-0.7,5.1-2.1,7c-1.4,1.9-3.5,3.6-6.4,4.9c1.9,0.4,3.6,1.1,5,2
				s2.6,1.9,3.6,3.1s1.7,2.5,2.1,3.9C681.5,69.5,681.7,71,681.7,72.5z M645.5,56.3h13.1c4.3,0,7.4-0.7,9.5-2c2-1.3,3.1-3.5,3.1-6.6
				c0-1.4-0.2-2.6-0.7-3.6s-1.2-1.9-2.3-2.6c-1-0.7-2.4-1.2-4.1-1.5c-1.7-0.3-3.8-0.5-6.2-0.5h-12.3L645.5,56.3L645.5,56.3z
				 M645.5,82.1h14.2c9.3,0,13.9-3.2,13.9-9.6c0-1.6-0.2-3.1-0.7-4.3c-0.5-1.2-1.3-2.2-2.4-3c-1.1-0.8-2.7-1.4-4.6-1.8
				c-1.9-0.4-4.3-0.6-7.2-0.6h-13.2V82.1z"/>
			<path class="st1" d="M699.9,40.6h-7.5v-7.8h7.5V40.6z M699.9,88.8h-7.5V48.3h7.5V88.8z"/>
			<path class="st1" d="M729.1,47.3c3,0,5.8,0.5,8.3,1.4c2.5,1,4.6,2.3,6.3,4.2c1.7,1.8,3.1,4,4,6.7c0.9,2.6,1.4,5.6,1.4,8.9
				c0,3.4-0.5,6.4-1.4,9c-1,2.6-2.3,4.9-4,6.7c-1.7,1.8-3.8,3.2-6.3,4.1c-2.4,0.9-5.2,1.4-8.2,1.4s-5.7-0.5-8.1-1.4
				c-2.4-0.9-4.6-2.3-6.3-4.1c-1.8-1.8-3.1-4-4.1-6.7c-1-2.6-1.4-5.7-1.4-9s0.5-6.3,1.4-8.9c1-2.6,2.3-4.9,4-6.7s3.8-3.2,6.3-4.2
				C723.3,47.8,726.1,47.3,729.1,47.3z M729.1,84c1.8,0,3.4-0.3,4.9-1s2.8-1.6,3.8-2.9c1.1-1.3,1.9-2.9,2.5-4.9s0.9-4.2,0.9-6.8
				c0-2.6-0.3-4.8-0.9-6.8c-0.6-1.9-1.4-3.6-2.5-4.9c-1.1-1.3-2.3-2.3-3.8-2.9c-1.5-0.7-3.1-1-4.9-1c-1.8,0-3.4,0.3-4.9,1
				s-2.8,1.6-3.8,2.9c-1.1,1.3-1.9,2.9-2.5,4.9c-0.6,1.9-0.9,4.2-0.9,6.8s0.3,4.8,0.9,6.8c0.6,2,1.4,3.6,2.5,4.9s2.3,2.3,3.8,2.9
				C725.6,83.7,727.3,84,729.1,84z"/>
			<path class="st1" d="M767.2,53.9v34.9h-7.5V53.9h-6.3v-5.6h6.3v-3.6c0-8.6,4-12.9,11.9-12.9c1.3,0,2.4,0.1,3.3,0.1
				c0.9,0.1,1.7,0.2,2.3,0.4v6.2c-0.8-0.1-1.5-0.2-2.2-0.3c-0.7,0-1.5-0.1-2.2-0.1c-1.9,0-3.3,0.5-4.2,1.5s-1.3,2.7-1.3,5v3.6h8v5.6
				L767.2,53.9L767.2,53.9z"/>
			<path class="st1" d="M808.9,83.6c-3.8,4.1-8,6.1-12.8,6.1c-9.6,0-14.4-5-14.4-15V48.3h7.7v26.1c0,1.7,0.1,3.1,0.4,4.3
				c0.3,1.2,0.8,2.1,1.4,2.9c0.6,0.7,1.5,1.3,2.5,1.6c1,0.4,2.2,0.5,3.6,0.5c4.2,0,8.1-2.2,11.6-6.5V48.3h7.5v40.5h-7.5V83.6z"/>
			<path class="st1" d="M835.9,53.4c1.9-2.1,3.9-3.6,6-4.6s4.4-1.5,6.7-1.5c9.6,0,14.4,5,14.4,15v26.5h-7.6V62.6
				c0-1.7-0.1-3.1-0.4-4.3c-0.3-1.2-0.8-2.1-1.4-2.9c-0.6-0.7-1.5-1.3-2.5-1.6s-2.2-0.5-3.6-0.5c-3.8,0-7.7,2.2-11.6,6.5v29h-7.5
				V48.3h7.5L835.9,53.4L835.9,53.4z"/>
			<path class="st1" d="M901.8,84c-3.4,3.8-7.5,5.7-12.1,5.7c-2.9,0-5.4-0.5-7.6-1.5c-2.2-1-4-2.4-5.5-4.2c-1.5-1.8-2.6-4-3.4-6.6
				c-0.8-2.6-1.1-5.4-1.1-8.6c0-3.3,0.5-6.3,1.4-9s2.2-4.9,3.8-6.8c1.6-1.9,3.5-3.3,5.7-4.3s4.5-1.5,7.1-1.5c2.3,0,4.5,0.3,6.4,1
				s3.7,1.7,5.3,3.1V32.8h7.5v55.9h-7.5L901.8,84L901.8,84z M901.8,77.1V57.9c-3.4-3.3-7.2-4.9-11.3-4.9c-1.6,0-3.1,0.3-4.4,1
				c-1.3,0.7-2.4,1.7-3.3,3c-0.9,1.3-1.6,3-2.1,5s-0.8,4.3-0.8,7c0,5,0.9,8.8,2.7,11.4s4.4,3.8,7.6,3.8c2.1,0,4.1-0.6,6-1.7
				C898.2,81.2,900,79.5,901.8,77.1z"/>
		</g>
	</g>
</g>
</svg>
